<svg xmlns="http://www.w3.org/2000/svg" viewBox="0 0 601 442.4"><defs><style>.cls-1{stroke:#000;stroke-miterlimit:10;}.cls-2{fill:#fff;}</style></defs><title>nightswatch-flag</title><g id="Layer_2" data-name="Layer 2"><g id="Layer_1-2" data-name="Layer 1"><rect class="cls-1" x="0.5" y="0.5" width="600" height="441.4"/><g id="Symbol"><path id="Swords" class="cls-2" d="M337.89,229.47a5.7,5.7,0,0,1-5.11-1.91c-9.92-10-19.92-20-29.89-29.94-1.38-1.39-4.72-1.36-6.11,0-9.7,9.69-19.43,19.35-29.06,29.1a6.32,6.32,0,0,1-4.88,1.78c.08-1.76.17-3.31,1.58-4.7,8.95-8.82,17.8-17.74,26.72-26.6a3.57,3.57,0,0,0,1.24-3c-.11-2,0-4.06-.05-6.09a2.74,2.74,0,0,0-.62-1.7q-10-10.11-20.13-20.16c-.14-.14-.3-.25-.71-.59l-3.21,4.07-1.14-1.87,4.81-4.09c-1.87-1.81-3.54-3.46-5.27-5.05-.25-.23-.8-.17-1.21-.18a2,2,0,0,1-.31-4.05,2.14,2.14,0,0,1,2.2,2,3.31,3.31,0,0,0,.72,1.63c1.37,1.49,2.84,2.89,4.28,4.33.07.06.16.11.53.35l4.27-5,1.38,1.59-3.8,3,25.77,25.75,24.87-25.08c-1.08-.8-1.72-2.45-3.63-2.76.06-.41,0-1.09.21-1.2.51-.26,1.48-.54,1.7-.3,1.31,1.44,2.45,3,3.61,4.52l7.26-7.25-.81-1a2,2,0,0,1,2.48-1.07,3.37,3.37,0,0,1,1.7,1.63c.45,1-.1,1.88-1,2.59l-1.18-.94c-2.33,2.31-4.64,4.61-7.13,7.1l4.85,4.56a4,4,0,0,1-.77,1.15,1.21,1.21,0,0,1-1.14-.21c-.93-1.16-1.74-2.4-2.79-3.89-4.3,4.38-8.31,8.47-12.34,12.54-2.5,2.54-5.07,5-7.53,7.59a3.37,3.37,0,0,0-.85,2c-.11,2.22-.09,4.46,0,6.68a2.94,2.94,0,0,0,.74,1.78c9.25,9.31,18.49,18.61,27.84,27.81A6.19,6.19,0,0,1,337.89,229.47Zm-1.75-1.28.41-.41a8.64,8.64,0,0,0-1.06-1.71q-14.19-14.25-28.41-28.46a2.65,2.65,0,0,0-2.88-.8,1.72,1.72,0,0,0,.16.35q15.11,15.1,30.24,30.2A6.3,6.3,0,0,0,336.14,228.19ZM295.56,197l-.27-.54c-.78.28-1.76.35-2.3.88q-14,13.83-27.83,27.8a7.23,7.23,0,0,0-.94,1.63l.44.43a11.78,11.78,0,0,0,1.81-1.19q7.53-7.47,15-15Q288.52,204,295.56,197ZM306,188.76l-.34-.27-3.52,4.15-2.56-2.43-2,2.8-3.84-4.39v6.58H306Zm-33.82-24.14,25.73,25.81.75-.82L272.94,163.8Zm53.85-.21-25,25.18.95.9,25-25.12Z"/><g id="Dragon"><path class="cls-2" d="M281.18,242.68c-3-2.87-5.91-5.51-8.59-8.39-1.7-1.82-1.33-4.36.56-6.28,3.37-3.41,6.78-6.79,10.17-10.19.76-.77,1.93-1.38,1.25-2.84-.08-.17.38-.6.6-.92,1.23,1.22,1.26,2,.41,3.44a4.51,4.51,0,0,0-.3,1.51c.49-.17,1.13-.19,1.47-.53,4.48-4.4,8.92-8.85,13.36-13.3.58-.59,1.25-1.14.79-2.18-.11-.26.32-.75.59-1.29a2.62,2.62,0,0,1,.31,3.67c-1.39,2-1.28,3.57.41,5.28,2.19,2.23,4.38,4.45,6.64,6.59.4.38,1.17.38,1.76.55a5.27,5.27,0,0,0-.25-1.8,2.75,2.75,0,0,1,.57-3.57c.18.7.28,1.17.42,1.63a3.87,3.87,0,0,0,.55,1.54c3.5,3.57,7,7.09,10.58,10.62a1.21,1.21,0,0,0,.35.19l1.07-1.9.44-.07c.12.44.48,1,.32,1.31-.78,1.42-.11,2.35.73,3.46a8,8,0,0,1,1.73,3.6A4.68,4.68,0,0,1,326,236c-2,2.24-4.24,4.28-6.52,6.52l-3.94-3.22-.23,3.41-.51,0a3,3,0,0,1-.35-3.95c-2.43-3.8-5.1-7.19-6.88-11A64.72,64.72,0,0,0,301,216.67a2.12,2.12,0,0,0-.68-.6c.35,2.56-.14,5.24,1.22,7.9-.28.66-.69.63-1.49,0-1.87-1.43-3.84-2.71-5.78-4l-.37.35,1.62,4.51c-4.95-.55-8.47,1.82-11.31,5.35A15.17,15.17,0,0,0,281.18,242.68Zm3.91-15.55c.64-.47,1.41-1,2.13-1.58a3.47,3.47,0,0,0,1.37-4.18c-.36-1,.14-1.17,1.16-1.41l.51,4,3.22-.87-1.84-4.94.35-.36,7.31,3.4-.76-9.37A52.62,52.62,0,0,1,308.26,226a42.64,42.64,0,0,0,3,5.76,34.14,34.14,0,0,0,8.13,9c1.88-1.89,3.73-3.67,5.5-5.53a3.13,3.13,0,0,0,0-4.55c-4.15-4.24-8.37-8.41-12.55-12.61-2.11,1.88-2.85,1.85-4.79-.08-1.44-1.43-2.9-2.84-4.31-4.3-1.62-1.67-3.63-3.07-3.9-6.06L288,219.21c-1.8,1.82-2.29,1.85-4.48.19-3.1,3.16-6.24,6.32-9.34,9.51-1.45,1.49-1.76,3.21-.55,4.53,1.82,2,3.84,3.79,5.82,5.71.26-1.41.5-2.8.8-4.18a3.6,3.6,0,0,0-1.62-4.24c-.87-.53-.73-1,0-1.8l2.88,2.67c2.48-3.26,2.58-4.29.58-7l1-1.16Z"/><path class="cls-2" d="M301.18,238.32l-3,1.28c4.61,1.22,7.74,3.77,9.5,8l1.79-1.27-5.19-5.38c4.16-.37,8.78,1.89,10.37,5a1.31,1.31,0,0,1-.22,1.81c-4.69,4.68-9.34,9.4-14.16,14.26-1.45-1.76-2.84-3.35-4.11-5-2.57-3.4-5.14-6.81-5.92-11.15a11.51,11.51,0,0,1,.61-7,5.57,5.57,0,0,1,4.85-3.61C298.13,235,299.85,236.17,301.18,238.32Zm-2.23-.57c-2.23-1.88-4.95-1.52-6.43.82a8.82,8.82,0,0,0-1.11,5.86A17.85,17.85,0,0,0,295,253c1.69,2.34,3.47,4.61,5.3,7,4.33-4.36,8.45-8.49,12.53-12.66a1.42,1.42,0,0,0,.38-1.2,5.43,5.43,0,0,0-4.9-2.9l3.29,3.24-4.64,3.25c-1.91-6.91-7-9.08-13.39-9.53Z"/><path class="cls-2" d="M305.72,228.85l2.17,4.74-3.5-2.1Z"/></g><g id="Lion"><path class="cls-2" d="M335.85,203.09,330.14,209l-4.62-4.55c1.75-.64,3-1.73,2.63-3.82a2.87,2.87,0,0,0-2.44-2.49c-2.06-.37-3.22.84-3.87,2.62l-7.41-7.46c2.24-2.2,4.6-4.44,6.86-6.78a4.91,4.91,0,0,0,1.2-2.23c1.54-6.67,5.59-11.11,12.05-13.11s12.67-.86,17.72,3.81c5.33,5,10.33,10.24,15.47,15.39a3,3,0,0,1,.3.37L339.6,219.18a11.46,11.46,0,0,1-3.1-13.7c.82-1.57,1.83-3.06,2.56-4.67a2.66,2.66,0,0,0-.94-3.31,3,3,0,0,0-3.47-.33,2.63,2.63,0,0,0-1.54,3.07,6,6,0,0,0,1.52,2.21A4,4,0,0,0,335.85,203.09Zm-14.5-4.6c2.45-2.23,4.81-2.44,6.78-.65s1.92,4.27-.32,7.15l2.16,2.12,3.58-3.54c-2.43-2.62-2.58-5.44-.18-7.13a6,6,0,0,1,3.3-.95c1.82,0,3,1.31,3.85,3,1.05-1.69,2.06-3.21,3-4.79,2.45-4.33-.07-8.9-5-9.09-1,0-1.17-.38-1-1.2,3.31-.69,5.37.55,8.28,5,1-5.44-4-10.58-9.43-9.51-8.08,1.6-13.68,6.29-16.42,14.06C318.49,196.8,318.51,195.73,321.35,198.49ZM344.19,213c5.42-5.44,10.77-10.78,16.06-16.17a2.17,2.17,0,0,0,.43-1.68,19.3,19.3,0,0,0-3.91-8.38,21.32,21.32,0,0,0-14.18-8.07c.47.41.68.61.9.79a9.5,9.5,0,0,1,2.74,11.85,48.59,48.59,0,0,1-2.8,5A14.76,14.76,0,0,0,344.19,213Zm22-22.21c-.2-.23-.38-.46-.59-.66-4.55-4.54-9.08-9.1-13.65-13.62a17,17,0,0,0-24.83,1.05,14.38,14.38,0,0,0-2.95,5.94c6.73-5.85,14.17-7.81,22.44-5.27s13.26,8.35,15.5,16.54Zm-26.58,26.54,3.37-3.48a19.38,19.38,0,0,1-3.13-11.15C335.74,208.51,335.71,212.67,339.61,217.32Zm-21.87-22.38L319,191l-2.73,2.57Z"/><path class="cls-2" d="M325.61,188.23l2.92-3a2.09,2.09,0,0,1-2.92,3Z"/></g><g id="Wolf"><path class="cls-2" d="M233,192.07c6.58-6,13.88-11.38,22.38-14.62L252.49,169l.37-.26,2.15,1.38c6.06,3.92,12.13,7.83,18.17,11.8.48.32.67,1.06,1,1.58a5.57,5.57,0,0,0,1.18,1.51c3.66,2.43,7.38,4.79,11.27,7.3-1.25,1.23-2.38,2.44-3.62,3.52-.3.27-.93.22-1.42.22-2.76,0-5.52,0-8.33.18l5.42,1.69L273,204.15c0-.78-.06-1.2-.09-1.62a5,5,0,0,0-4.14-4.76,4.73,4.73,0,0,0-5.31,3.31c-.25.69-.25,1.47-.5,2.16a4.67,4.67,0,0,1-.9,1.12l-.5-.3.29-3a14.64,14.64,0,0,0-3.63,10.79,9.49,9.49,0,0,0,.69,3c.53,1.23.19,2-.81,2.43Zm18.39-4.37a15.28,15.28,0,0,0-4.26,9.18,15.16,15.16,0,0,0,9.2-4.26c.26.21.45.36.63.53a6.13,6.13,0,0,1,.42.52,15.32,15.32,0,0,0-4.3,9.18,13.78,13.78,0,0,0,8.49-3.7A16.25,16.25,0,0,1,273,194.6c2,0,4.07,0,6.09.08,1,0,1.34-.34,1.41-1.23a5.21,5.21,0,0,0-2.16-4.92c-1.16-.84-2.39-1.59-3.6-2.37-1-.63-2.16-1.06-1.92-2.63,0-.25-.52-.65-.87-.88q-6.39-4.2-12.81-8.35c-1.37-.89-2.75-1.74-4.13-2.61l-.39.32,3.93,7.82-.65.59c-1.84-1.82-1.84-1.82-4.22-.8A68.38,68.38,0,0,0,237,190.34a1.58,1.58,0,0,0-.26.49,12.54,12.54,0,0,0,7.42-.39c2.25-.9,4.34-2.2,6.66-3.41-.07-.06.11.09.28.26A2.78,2.78,0,0,1,251.36,187.7Zm-4.06,3a17.39,17.39,0,0,1-10.18,1.69c.82,3.18,4.66,5.13,8.36,4.52Zm5.77,13.77c-.36,4.05,1.35,7.73,3.58,7.94a46,46,0,0,1,.46-4.85,46.21,46.21,0,0,1,1.38-4.56Zm.2-7.77-6.33,1.91a21.23,21.23,0,0,0,.43,3.09,1.78,1.78,0,0,0,1.19,1,17.88,17.88,0,0,0,3,.07s.1-.35.15-.54C252.26,200.31,252.78,198.42,253.27,196.67Zm-5.2,7.42a14.08,14.08,0,0,0,4.31,5.91l-1-5.6Zm-2.52-5.61c-1.05-.13-1.93-.21-2.79-.36s-1.8-.39-2.7-.59l-.23.36q2.83,2.07,5.68,4.13l.36-.32Zm30.7.07L271.13,197l3.17,3.71Zm5.52-7.82v3.86l.28.18,1.92-2.62.45.29Z"/><path class="cls-2" d="M265.82,183.72l5.47,2.13-2.65,1.64-3-3.51Z"/></g><g id="Deer"><path class="cls-2" d="M280,138.82c.26-.22.45-.38.65-.52a3,3,0,0,1,.43-.19,8.9,8.9,0,0,0,6.93,3.78c-1.95-3.34-1.87-6.82-1.76-10.29,0-.38.45-.75.7-1.13.22.37.61.72.62,1.09.07,2,0,3.93,0,5.88,3.8.25,7.5-3.17,7.83-7.12.18-2.26,0-4.55.14-6.82,0-.49.46-1,.7-1.45a3.94,3.94,0,0,1,.61,1.37c.08,1.78,0,3.57,0,5.35,0,5.25-2.92,8.89-8,10.13a6.08,6.08,0,0,0-.62.2,12.11,12.11,0,0,0,4.82,6.25l1.55-5,1.23.41c-.5,1.77-1,3.47-1.47,5.13,2.81,2,7.8,2,10.84.06l-2.1-7.35,1.28-.38c.7,2.41,1.37,4.68,2.1,7.15a12,12,0,0,0,5.39-8.34c-7.12-1.8-8.42-6.42-7.77-12.23.8-.29,1.29-.21,1.25.85a29.51,29.51,0,0,0,.06,3.26,7,7,0,0,0,6.58,6.42v-5l.49-.29c.3.35.86.7.87,1,.05,3.46.36,7-1.44,10.18,2.3.07,4.63-1.48,6.13-4,.52-.87.52-.87,1.74-.44a10,10,0,0,1-7.64,6,5.66,5.66,0,0,0-2.32,1.36c3.18-.51,5.15,1.15,6.94,3.25-2.36,3.56-5.12,4.23-8.94,2.11.09.46.13.82.22,1.15,1.64,5.71,3.31,11.4,4.91,17.12a2,2,0,0,1-.3,1.66c-4.1,4.23-8.26,8.4-12.4,12.58-.14.14-.31.24-.58.46-4.37-4.4-8.73-8.77-13.05-13.18a1.77,1.77,0,0,1-.18-1.43c1.59-5.56,3.24-11.11,4.87-16.66.15-.51.29-1,.34-1.2a20.74,20.74,0,0,1-4.82.56c-1.76-.18-3-1.55-4.05-3a6.23,6.23,0,0,1,6.88-3.2l.17-.4a7.19,7.19,0,0,0-2-.83A10.28,10.28,0,0,1,280,138.82Zm29.06,20.35a10.31,10.31,0,0,0-4.52,8.82h-9.68a10,10,0,0,0-4.4-8.79c-.85,2.88-1.6,5.59-2.47,8.26a1.72,1.72,0,0,0,.55,2c3.38,3.33,6.72,6.7,10.08,10.06.37.36.78.69,1.06,1,3.94-3.86,7.79-7.63,11.62-11.41a1.13,1.13,0,0,0,.35-.87C310.83,165.26,310,162.29,309.06,159.17Zm-15.12-11.73c-1,3.36-2,6.56-2.87,9.78a1.28,1.28,0,0,0,.48,1.05,12.13,12.13,0,0,1,4.23,5.94,1.5,1.5,0,0,0,1.1.8c1.93.09,3.86.08,5.78,0a1.39,1.39,0,0,0,1-.74,12,12,0,0,1,4.3-6.05,1.33,1.33,0,0,0,.49-1.06c-.88-3.22-1.84-6.41-2.8-9.7A14,14,0,0,1,293.94,147.44Zm21.06.22c-2.6-2.6-5-2.56-7,.05C310.34,150.28,312.56,150.29,315,147.66Zm-23.4,0c-2.36-2.66-4.91-2.63-7,0C286.93,150.26,289.14,150.28,291.6,147.7Z"/><path class="cls-2" d="M297.09,170.09c-.33-1-.19-1.42.82-1.39,1.32,0,2.65,0,4,0,.31,0,.6.43.89.65-.28.24-.56.67-.85.68C300.31,170.13,298.7,170.09,297.09,170.09Z"/></g></g><path class="cls-2" d="M215.56,302.42V291h1.62l3.67,5.8a31.62,31.62,0,0,1,2.05,3.71h0c-.14-1.53-.17-2.92-.17-4.71V291h1.39v11.45h-1.5L219,296.61a36.06,36.06,0,0,1-2.14-3.82l0,0c.08,1.44.12,2.82.12,4.72v4.89Z"/><path class="cls-2" d="M228.22,291v11.45h-1.48V291Z"/><path class="cls-2" d="M239.51,301.91a10.58,10.58,0,0,1-3.51.63,5.38,5.38,0,0,1-5.88-5.77c0-3.42,2.36-5.91,6.2-5.91a7,7,0,0,1,2.85.52l-.35,1.21a6,6,0,0,0-2.53-.5,4.28,4.28,0,0,0-4.6,4.61c0,2.9,1.74,4.62,4.41,4.62a4.79,4.79,0,0,0,2-.31V297.6h-2.33v-1.19h3.77Z"/><path class="cls-2" d="M243.25,291v4.79h5.54V291h1.49v11.45h-1.49v-5.37h-5.54v5.37h-1.47V291Z"/><path class="cls-2" d="M255,292.23h-3.48V291H260v1.26h-3.5v10.19H255Z"/><path class="cls-2" d="M263.7,290.79a20,20,0,0,1-1.59,4l-.95.12a24.75,24.75,0,0,0,1-4Z"/><path class="cls-2" d="M265.05,300.62a5.21,5.21,0,0,0,2.65.75c1.51,0,2.39-.8,2.39-2s-.61-1.68-2.16-2.27c-1.86-.66-3-1.63-3-3.24,0-1.79,1.48-3.11,3.7-3.11a5.19,5.19,0,0,1,2.53.56l-.4,1.2a4.65,4.65,0,0,0-2.18-.54c-1.56,0-2.15.93-2.15,1.72,0,1.07.69,1.59,2.27,2.2,1.94.75,2.92,1.68,2.92,3.37s-1.31,3.29-4,3.29a5.89,5.89,0,0,1-2.92-.73Z"/><path class="cls-2" d="M278.48,302.42,275.58,291h1.56l1.36,5.8c.34,1.42.65,2.85.85,4h0c.19-1.14.55-2.49.94-4l1.53-5.78h1.54l1.39,5.81c.33,1.36.63,2.72.8,3.93h0c.23-1.26.56-2.54.91-4L288,291h1.52l-3.25,11.45h-1.54l-1.45-6a35,35,0,0,1-.74-3.74h0a35.93,35.93,0,0,1-.88,3.74l-1.63,6Z"/><path class="cls-2" d="M291.87,298.82l-1.19,3.6h-1.53L293,291h1.78l3.91,11.45h-1.58l-1.22-3.6Zm3.75-1.15-1.12-3.3c-.25-.75-.42-1.43-.59-2.09h0c-.17.68-.35,1.38-.57,2.07l-1.13,3.32Z"/><path class="cls-2" d="M301.28,292.23H297.8V291h8.47v1.26h-3.5v10.19h-1.49Z"/><path class="cls-2" d="M315.09,302.05a7.41,7.41,0,0,1-3,.54c-3.22,0-5.65-2-5.65-5.79a5.7,5.7,0,0,1,6-6,6,6,0,0,1,2.71.51l-.35,1.2a5.42,5.42,0,0,0-2.31-.47c-2.68,0-4.47,1.71-4.47,4.72,0,2.8,1.62,4.6,4.4,4.6a5.87,5.87,0,0,0,2.41-.48Z"/><path class="cls-2" d="M318.42,291v4.79H324V291h1.49v11.45H324v-5.37h-5.54v5.37h-1.48V291Z"/><path class="cls-2" d="M331.41,300.62a5.26,5.26,0,0,0,2.65.75c1.52,0,2.4-.8,2.4-2s-.61-1.68-2.16-2.27c-1.87-.66-3-1.63-3-3.24,0-1.79,1.48-3.11,3.7-3.11a5.19,5.19,0,0,1,2.53.56l-.41,1.2a4.57,4.57,0,0,0-2.17-.54c-1.56,0-2.16.93-2.16,1.72,0,1.07.7,1.59,2.28,2.2,1.93.75,2.92,1.68,2.92,3.37s-1.31,3.29-4,3.29a5.89,5.89,0,0,1-2.92-.73Z"/><path class="cls-2" d="M349.43,304.1c-1.54-.41-3.05-.86-4.38-1.32a2,2,0,0,0-.69-.17c-2.72-.1-5.05-2.11-5.05-5.79s2.24-6,5.34-6,5.12,2.41,5.12,5.79c0,2.94-1.35,4.82-3.26,5.48v.07c1.14.29,2.38.56,3.35.73Zm-1.22-7.45c0-2.3-1.19-4.66-3.62-4.66s-3.71,2.31-3.7,4.79,1.33,4.62,3.64,4.62S348.21,299.26,348.21,296.65Z"/><path class="cls-2" d="M353.17,291v6.78c0,2.57,1.14,3.65,2.67,3.65,1.7,0,2.79-1.12,2.79-3.65V291h1.49v6.68c0,3.51-1.85,5-4.33,5s-4.11-1.34-4.11-4.89V291Z"/><path class="cls-2" d="M364,298.82l-1.19,3.6h-1.53L365.13,291h1.79l3.9,11.45h-1.58l-1.22-3.6Zm3.75-1.15-1.12-3.3c-.25-.75-.42-1.43-.59-2.09h0c-.17.68-.35,1.38-.57,2.07l-1.12,3.32Z"/><path class="cls-2" d="M372.51,291.13a20.39,20.39,0,0,1,3.14-.24,6.51,6.51,0,0,1,4.63,1.43,5.25,5.25,0,0,1,1.62,4.11,6,6,0,0,1-1.65,4.44,7.06,7.06,0,0,1-5.06,1.65,25,25,0,0,1-2.68-.13ZM374,301.25a9.26,9.26,0,0,0,1.5.08c3.16,0,4.87-1.76,4.87-4.85,0-2.7-1.51-4.42-4.64-4.42a8.8,8.8,0,0,0-1.73.15Z"/></g></g></svg>